<?xml version="1.0" encoding="UTF-8" standalone="no"?>
<svg
   data-name="Layer 1"
   width="722.11262"
   height="558.1509"
   viewBox="0 0 722.11262 558.1509"
   version="1.1"
   id="svg136"
   sodipodi:docname="undraw_typewriter_re_u9i2.svg"
   inkscape:version="1.2.1 (9c6d41e410, 2022-07-14)"
   xmlns:inkscape="http://www.inkscape.org/namespaces/inkscape"
   xmlns:sodipodi="http://sodipodi.sourceforge.net/DTD/sodipodi-0.dtd"
   xmlns:xlink="http://www.w3.org/1999/xlink"
   xmlns="http://www.w3.org/2000/svg"
   xmlns:svg="http://www.w3.org/2000/svg">
  <defs
     id="defs140">
    <color-profile
       name="Agfa-:-Swop-Standard"
       xlink:href="../../../../../../../../Windows/system32/spool/drivers/color/RSWOP.icm"
       id="color-profile4738" />
  </defs>
  <sodipodi:namedview
     id="namedview138"
     pagecolor="#222629"
     bordercolor="#666666"
     borderopacity="1.0"
     inkscape:showpageshadow="2"
     inkscape:pageopacity="1"
     inkscape:pagecheckerboard="0"
     inkscape:deskcolor="#d1d1d1"
     showgrid="false"
     inkscape:zoom="3.5468241"
     inkscape:cx="354.82447"
     inkscape:cy="266.99943"
     inkscape:window-width="3840"
     inkscape:window-height="2126"
     inkscape:window-x="-11"
     inkscape:window-y="-11"
     inkscape:window-maximized="1"
     inkscape:current-layer="svg136" />
  <path
     d="M892.0771,705.04148h-585.082a68.4964,68.4964,0,0,1-66.89649-83.21289l26.13379-118.78711H932.83979l26.13379,118.78711a68.49639,68.49639,0,0,1-66.89648,83.21289Zm-624.23731-200-25.78808,117.2168a66.49673,66.49673,0,0,0,64.94336,80.7832h585.082a66.49674,66.49674,0,0,0,64.94336-80.7832l-25.78809-117.2168Z"
     transform="translate(-238.47977 -171.03678)"
     fill="#f2f2f2"
     id="path2"
     style="fill:#e6e6e6;fill-opacity:1;opacity:1" />
  <path
     d="M817.7855,249.41514l30.69046-4.5739-4.84758-21.34916-18.4,9.26659-37.961-14.30669a7.71684,7.71684,0,1,0-5.0485,10.199Z"
     transform="translate(-238.47977 -171.03678)"
     fill="#ffb6b6"
     id="path4" />
  <path
     d="M880.164,233.45546c-2.37275,8.99484-57.04774,19.14085-57.02046,17.19492.07752-5.53051,3.5933-17.135,1.58543-20.14555-1.14827-1.72168,14.31267-6.121,14.31267-6.121s8.53341-3.28453,19.59642-7.29317a19.72107,19.72107,0,0,1,18.85049,2.60441S882.5367,224.46062,880.164,233.45546Z"
     transform="translate(-238.47977 -171.03678)"
     fill="#222629"
     id="path6"
     style="fill:#e6e6e6;fill-opacity:1" />
  <path
     d="M351.24671,608.03678h-19a16,16,0,0,0,0,32h19a16,16,0,0,0,0-32Z"
     transform="translate(-238.47977 -171.03678)"
     fill="#e6e6e6"
     id="path8"
     style="fill:#e6e6e6;fill-opacity:1" />
  <path
     d="M412.24671,608.03678h-19a16,16,0,0,0,0,32h19a16,16,0,0,0,0-32Z"
     transform="translate(-238.47977 -171.03678)"
     fill="#e6e6e6"
     id="path10"
     style="fill:#e6e6e6;fill-opacity:1" />
  <path
     d="M473.24671,608.03678h-19a16,16,0,0,0,0,32h19a16,16,0,0,0,0-32Z"
     transform="translate(-238.47977 -171.03678)"
     fill="#e6e6e6"
     id="path12"
     style="fill:#e6e6e6;fill-opacity:1" />
  <path
     d="M534.24671,608.03678h-19a16,16,0,0,0,0,32h19a16,16,0,0,0,0-32Z"
     transform="translate(-238.47977 -171.03678)"
     fill="#e6e6e6"
     id="path14"
     style="fill:#e6e6e6;fill-opacity:1" />
  <path
     d="M595.24671,608.03678h-19a16,16,0,0,0,0,32h19a16,16,0,0,0,0-32Z"
     transform="translate(-238.47977 -171.03678)"
     fill="#e6e6e6"
     id="path16"
     style="fill:#e6e6e6;fill-opacity:1" />
  <path
     d="M656.24671,608.03678h-19a16,16,0,0,0,0,32h19a16,16,0,0,0,0-32Z"
     transform="translate(-238.47977 -171.03678)"
     fill="#e6e6e6"
     id="path18"
     style="fill:#e6e6e6;fill-opacity:1" />
  <path
     d="M717.24671,608.03678h-19a16,16,0,0,0,0,32h19a16,16,0,0,0,0-32Z"
     transform="translate(-238.47977 -171.03678)"
     fill="#e6e6e6"
     id="path20"
     style="fill:#e6e6e6;fill-opacity:1" />
  <path
     d="M778.24671,608.03678h-19a16,16,0,0,0,0,32h19a16,16,0,0,0,0-32Z"
     transform="translate(-238.47977 -171.03678)"
     fill="#e6e6e6"
     id="path22"
     style="fill:#e6e6e6;fill-opacity:1" />
  <path
     d="M839.24671,608.03678h-19a16,16,0,0,0,0,32h19a16,16,0,0,0,0-32Z"
     transform="translate(-238.47977 -171.03678)"
     fill="#e6e6e6"
     id="path24"
     style="fill:#e6e6e6;fill-opacity:1" />
  <path
     d="M351.24671,541.03678h-19a16,16,0,0,0,0,32h19a16,16,0,0,0,0-32Z"
     transform="translate(-238.47977 -171.03678)"
     fill="#e6e6e6"
     id="path26"
     style="fill:#e6e6e6;fill-opacity:1" />
  <path
     d="M412.24671,541.03678h-19a16,16,0,0,0,0,32h19a16,16,0,0,0,0-32Z"
     transform="translate(-238.47977 -171.03678)"
     fill="#e6e6e6"
     id="path28"
     style="fill:#e6e6e6;fill-opacity:1" />
  <path
     d="M473.24671,541.03678h-19a16,16,0,0,0,0,32h19a16,16,0,0,0,0-32Z"
     transform="translate(-238.47977 -171.03678)"
     fill="#222629"
     id="path30"
     style="fill:#e6e6e6;fill-opacity:1" />
  <path
     d="M534.24671,541.03678h-19a16,16,0,0,0,0,32h19a16,16,0,0,0,0-32Z"
     transform="translate(-238.47977 -171.03678)"
     fill="#e6e6e6"
     id="path32"
     style="fill:#e6e6e6;fill-opacity:1" />
  <path
     d="M595.24671,541.03678h-19a16,16,0,0,0,0,32h19a16,16,0,0,0,0-32Z"
     transform="translate(-238.47977 -171.03678)"
     fill="#e6e6e6"
     id="path34"
     style="fill:#e6e6e6;fill-opacity:1" />
  <path
     d="M656.24671,541.03678h-19a16,16,0,0,0,0,32h19a16,16,0,0,0,0-32Z"
     transform="translate(-238.47977 -171.03678)"
     fill="#e6e6e6"
     id="path36"
     style="fill:#e6e6e6;fill-opacity:1" />
  <path
     d="M717.24671,541.03678h-19a16,16,0,0,0,0,32h19a16,16,0,0,0,0-32Z"
     transform="translate(-238.47977 -171.03678)"
     fill="#e6e6e6"
     id="path38"
     style="fill:#e6e6e6;fill-opacity:1" />
  <path
     d="M778.24671,541.03678h-19a16,16,0,0,0,0,32h19a16,16,0,0,0,0-32Z"
     transform="translate(-238.47977 -171.03678)"
     fill="#e6e6e6"
     id="path40"
     style="fill:#e6e6e6;fill-opacity:1" />
  <path
     d="M839.24671,541.03678h-19a16,16,0,0,0,0,32h19a16,16,0,0,0,0-32Z"
     transform="translate(-238.47977 -171.03678)"
     fill="#e6e6e6"
     id="path42"
     style="fill:#e6e6e6;fill-opacity:1" />
  <path
     d="M379.74671,575.53678h-19a16,16,0,0,0,0,32h19a16,16,0,0,0,0-32Z"
     transform="translate(-238.47977 -171.03678)"
     fill="#e6e6e6"
     id="path44"
     style="fill:#e6e6e6;fill-opacity:1" />
  <path
     d="M440.74671,575.53678h-19a16,16,0,0,0,0,32h19a16,16,0,0,0,0-32Z"
     transform="translate(-238.47977 -171.03678)"
     fill="#e6e6e6"
     id="path46"
     style="fill:#e6e6e6;fill-opacity:1" />
  <path
     d="M501.74671,575.53678h-19a16,16,0,0,0,0,32h19a16,16,0,0,0,0-32Z"
     transform="translate(-238.47977 -171.03678)"
     fill="#e6e6e6"
     id="path48"
     style="fill:#e6e6e6;fill-opacity:1" />
  <path
     d="M562.74671,575.53678h-19a16,16,0,0,0,0,32h19a16,16,0,0,0,0-32Z"
     transform="translate(-238.47977 -171.03678)"
     fill="#e6e6e6"
     id="path50"
     style="fill:#e6e6e6;fill-opacity:1" />
  <path
     d="M623.74671,575.53678h-19a16,16,0,0,0,0,32h19a16,16,0,0,0,0-32Z"
     transform="translate(-238.47977 -171.03678)"
     fill="#e6e6e6"
     id="path52"
     style="fill:#e6e6e6;fill-opacity:1" />
  <path
     d="M684.74671,575.53678h-19a16,16,0,0,0,0,32h19a16,16,0,0,0,0-32Z"
     transform="translate(-238.47977 -171.03678)"
     fill="#e6e6e6"
     id="path54"
     style="fill:#e6e6e6;fill-opacity:1" />
  <path
     d="M745.74671,575.53678h-19a16,16,0,0,0,0,32h19a16,16,0,0,0,0-32Z"
     transform="translate(-238.47977 -171.03678)"
     fill="#e6e6e6"
     id="path56"
     style="fill:#e6e6e6;fill-opacity:1" />
  <path
     d="M806.74671,575.53678h-19a16,16,0,0,0,0,32h19a16,16,0,0,0,0-32Z"
     transform="translate(-238.47977 -171.03678)"
     fill="#e6e6e6"
     id="path58"
     style="fill:#e6e6e6;fill-opacity:1" />
  <path
     d="M867.74671,575.53678h-19a16,16,0,0,0,0,32h19a16,16,0,0,0,0-32Z"
     transform="translate(-238.47977 -171.03678)"
     fill="#e6e6e6"
     id="path60"
     style="fill:#e6e6e6;fill-opacity:1" />
  <path
     d="M797.37855,504.03678H402.61488a23.64479,23.64479,0,0,1-23.61817-23.61816l.02588-.22559c13.96582-60.42773,13.96045-136.18164-.0166-238.40234l-.00928-.13574a23.64512,23.64512,0,0,1,23.61817-23.61817H797.37855A23.64511,23.64511,0,0,1,820.99671,241.655l-.022.209a566.87235,566.87235,0,0,0,0,238.3457l.022.209A23.64478,23.64478,0,0,1,797.37855,504.03678Z"
     transform="translate(-238.47977 -171.03678)"
     fill="#fff"
     id="path62"
     style="fill:#222629;fill-opacity:1" />
  <path
     d="M797.37855,504.03678H402.61488a23.64479,23.64479,0,0,1-23.61817-23.61816l.02588-.22559c13.96582-60.42773,13.96045-136.18164-.0166-238.40234l-.00928-.13574a23.64512,23.64512,0,0,1,23.61817-23.61817H797.37855A23.64511,23.64511,0,0,1,820.99671,241.655l-.022.209a566.87235,566.87235,0,0,0,0,238.3457l.022.209A23.64478,23.64478,0,0,1,797.37855,504.03678ZM380.9972,480.53092a21.64307,21.64307,0,0,0,21.61768,21.50586H797.37855a21.64279,21.64279,0,0,0,21.61767-21.51367,568.84463,568.84463,0,0,1,0-238.97266,21.64279,21.64279,0,0,0-21.61767-21.51367H402.61488a21.64308,21.64308,0,0,0-21.61817,21.55078C394.98939,343.95622,394.99036,419.89274,380.9972,480.53092Z"
     transform="translate(-238.47977 -171.03678)"
     fill="#e6e6e6"
     id="path64"
     style="fill:#e6e6e6;fill-opacity:1" />
  <path
     d="M755.99671,288.53678h-319a6.5,6.5,0,0,1,0-13h319a6.5,6.5,0,0,1,0,13Z"
     transform="translate(-238.47977 -171.03678)"
     fill="#e6e6e6"
     id="path66"
     style="fill:#e6e6e6;fill-opacity:1" />
  <path
     d="M755.99671,320.03678h-319a6.5,6.5,0,0,1,0-13h319a6.5,6.5,0,0,1,0,13Z"
     transform="translate(-238.47977 -171.03678)"
     fill="#e6e6e6"
     id="path68"
     style="fill:#e6e6e6;fill-opacity:1" />
  <path
     d="M755.99671,351.53678h-319a6.5,6.5,0,0,1,0-13h319a6.5,6.5,0,0,1,0,13Z"
     transform="translate(-238.47977 -171.03678)"
     fill="#e6e6e6"
     id="path70"
     style="fill:#e6e6e6;fill-opacity:1" />
  <path
     d="M755.99671,383.03678h-319a6.5,6.5,0,0,1,0-13h319a6.5,6.5,0,0,1,0,13Z"
     transform="translate(-238.47977 -171.03678)"
     fill="#e6e6e6"
     id="path72"
     style="fill:#e6e6e6;fill-opacity:1" />
  <path
     d="M755.99671,414.53678h-319a6.5,6.5,0,0,1,0-13h319a6.5,6.5,0,0,1,0,13Z"
     transform="translate(-238.47977 -171.03678)"
     fill="#e6e6e6"
     id="path74"
     style="fill:#e6e6e6;fill-opacity:1" />
  <path
     d="M579.99671,446.03678h-143a6.5,6.5,0,0,1,0-13h143a6.5,6.5,0,0,1,0,13Z"
     transform="translate(-238.47977 -171.03678)"
     fill="#222629"
     id="path76"
     style="fill:#e6e6e6;fill-opacity:1" />
  <path
     d="M598.17835,495.53678H571.85511a2.65765,2.65765,0,0,1-2.06885-1.01953,3.174,3.174,0,0,1-.60058-2.65234l12.3872-56.0459a2.69956,2.69956,0,0,1,5.32032-.08106l13.936,56.04493a3.1748,3.1748,0,0,1-.55762,2.7041A2.65706,2.65706,0,0,1,598.17835,495.53678Z"
     transform="translate(-238.47977 -171.03678)"
     fill="#e6e6e6"
     id="path78"
     style="fill:#e6e6e6;fill-opacity:1" />
  <path
     d="M928.99671,516.53678h-658a13.5,13.5,0,0,1,0-27h658a13.5,13.5,0,0,1,0,27Z"
     transform="translate(-238.47977 -171.03678)"
     fill="#f2f2f2"
     id="path80"
     style="fill:#e6e6e6;fill-opacity:1" />
  <polygon
     points="607.193 311.693 597.591 311.692 593.024 274.657 607.195 274.658 607.193 311.693"
     fill="#ffb6b6"
     id="polygon82" />
  <path
     d="M848.12137,492.03678l-30.95975-.00114v-.39159a12.051,12.051,0,0,1,12.0504-12.05021h.00076l5.65521-4.29034,10.55135,4.291,2.7026.0001Z"
     transform="translate(-238.47977 -171.03678)"
     fill="#2f2e41"
     id="path84" />
  <polygon
     points="693.95 299.209 685.357 303.492 664.747 272.384 677.431 266.063 693.95 299.209"
     fill="#ffb6b6"
     id="polygon86" />
  <path
     d="M938.77356,477.48361l-27.709,13.81-.17469-.35047a12.051,12.051,0,0,1,5.40937-16.16039l.00069-.00034,3.14742-6.36255,11.3575-.86655,2.41883-1.20552Z"
     transform="translate(-238.47977 -171.03678)"
     fill="#2f2e41"
     id="path88" />
  <path
     d="M841.41862,314.52925l52.94493,1.85308,3.95881,7.35208s4.14634,30.07924,2.02286,32.20272-3.18522,2.12348-2.12348,5.83957,3.80663,39.22214,3.80663,39.22214,21.87145,45.36626,22.93319,48.02061,2.12348,1.59261,1.06174,2.65435A39.09813,39.09813,0,0,0,923.369,454.859H906.0645s-9.31724-23.50265-17.846-32.59349a51.63525,51.63525,0,0,1-13.61219-29.178l-7.175-33.96517L852.036,411.14763s-2.65436,51.49442-2.12349,54.14877l.53087,2.65435-20.39562.22781s-2.12348-4.47477-1.06174-6.06738.998-1.15789-.29729-3.76417-.76445-7.02253-.76445-7.02253,7.65474-104.41215,7.65474-106.00476a5.29511,5.29511,0,0,0-.441-2.38825V340.7697l2.03361-7.66Z"
     transform="translate(-238.47977 -171.03678)"
     fill="#2f2e41"
     id="path90" />
  <path
     d="M864.24632,218.46691c-3.44619,2.04877-5.50772,5.81313-6.69112,9.64368a91.38867,91.38867,0,0,0-3.9272,21.83492l-1.24993,22.18655a91.3502,91.3502,0,0,1-11.627,40.78356,7.12994,7.12994,0,0,0,4.45968,10.32456c19.18914,5.03527,55.533-1.28668,55.533-1.28668s1.548-.516,0-2.064-5.02085-9.28825-5.02085-9.28825l4.12808-27.117,5.16009-54.69713c-6.19215-7.74017-18.64533-12.30294-18.64533-12.30294l-3.21775-5.79194-16.08872,1.28709Z"
     transform="translate(-238.47977 -171.03678)"
     fill="#222629"
     id="path92"
     style="fill:#e6e6e6;fill-opacity:1" />
  <circle
     cx="635.97946"
     cy="20.8342"
     r="15.4554"
     fill="#ffb8b8"
     id="circle94" />
  <path
     d="M893.50263,190.95324a26.87734,26.87734,0,0,1-3.67594,8.807,5.99486,5.99486,0,0,1-2.00508,2.27656,2.19153,2.19153,0,0,1-2.78481-.34811l-.376-.30633a7.97635,7.97635,0,0,0,1.9494-1.69177,2.71626,2.71626,0,0,0,.52216-2.42975,1.67252,1.67252,0,0,0-2.04685-1.093c-.9051.35507-1.45508,1.66393-2.40191,1.46205-.76585-.16712-.926-1.17659-.926-1.97027.02783-4.1494-1.97724-10.04623-3.52977-9.86521a12.51866,12.51866,0,0,1-4.62973-.61963,12.12965,12.12965,0,0,0-4.63675-.5918c-.11138.01394-.22279.03484-.34114.05571a10.267,10.267,0,0,0-1.03036-2.24873,12.01386,12.01386,0,0,1-.12532,2.54809,23.83181,23.83181,0,0,1-3.857,1.21836c-1.43418.20192-4.588,4.49053-4.73418,4.05191a10.2676,10.2676,0,0,0-1.03037-2.24872,12.01386,12.01386,0,0,1-.12531,2.54809c-.007.0348-.007.06267-.01394.09748-.69621-.926-1.12088-2.05382-.88419-1.19053-2.33227-5.2772-1.42722-9.05759,2.2418-13.50635a7.05517,7.05517,0,0,1,2.75-2.207,3.46792,3.46792,0,0,1,3.38359.33421,11.38389,11.38389,0,0,1,11.29242-2.40888c3.82216,1.32977,6.76713,2.10952,7.35192,6.11966a8.50874,8.50874,0,0,1,8.15257,3.96834A12.84965,12.84965,0,0,1,893.50263,190.95324Z"
     transform="translate(-238.47977 -171.03678)"
     fill="#2f2e41"
     id="path96" />
  <path
     d="M909.99671,291.38527l.02514-31.02941-21.83183,1.63,6.43726,19.57017-19.77475,35.42138a7.71685,7.71685,0,1,0,9.33816,6.5043Z"
     transform="translate(-238.47977 -171.03678)"
     fill="#ffb6b6"
     id="path98" />
  <path
     d="M903.45817,227.33035c8.54385,3.67964,10.47463,59.25452,8.55424,58.93915-5.458-.89632-16.41325-6.09313-19.68811-4.55362-1.87284.88042-3.93214-15.06177-3.93214-15.06177s-1.98355-8.926-4.30831-20.4609a19.721,19.721,0,0,1,5.36941-18.25633S894.91432,223.65073,903.45817,227.33035Z"
     transform="translate(-238.47977 -171.03678)"
     fill="#222629"
     id="path100"
     style="fill:#e6e6e6;fill-opacity:1" />
  <path
     d="M702.99671,654.04148h-206a16,16,0,0,0,0,32h206a16,16,0,0,0,0-32Z"
     transform="translate(-238.47977 -171.03678)"
     fill="#e6e6e6"
     id="path134"
     style="fill:#e6e6e6;fill-opacity:1" />
</svg>
